<svg width="25" height="24" viewBox="0 0 25 24" fill="none" xmlns="http://www.w3.org/2000/svg">
<path d="M17.8341 16.6569C16.8975 17.5935 14.9388 19.5521 13.591 20.8999C12.81 21.681 11.5449 21.6814 10.7639 20.9003C9.43959 19.576 7.51884 17.6553 6.52039 16.6569C3.3962 13.5327 3.3962 8.46734 6.52039 5.34315C9.64459 2.21895 14.7099 2.21895 17.8341 5.34315C20.9583 8.46734 20.9583 13.5327 17.8341 16.6569Z" stroke="#101010" stroke-width="2" stroke-linecap="round" stroke-linejoin="round"/>
<path d="M15.1772 11C15.1772 12.6569 13.8341 14 12.1772 14C10.5204 14 9.17725 12.6569 9.17725 11C9.17725 9.34315 10.5204 8 12.1772 8C13.8341 8 15.1772 9.34315 15.1772 11Z" stroke="#101010" stroke-width="2" stroke-linecap="round" stroke-linejoin="round"/>
</svg>
