<svg width="25" height="24" viewBox="0 0 25 24" fill="none" xmlns="http://www.w3.org/2000/svg">
<path d="M3.17725 5C3.17725 3.89543 4.07268 3 5.17725 3H8.45649C8.88692 3 9.26906 3.27543 9.40517 3.68377L10.903 8.17721C11.0604 8.64932 10.8466 9.16531 10.4015 9.38787L8.14425 10.5165C9.2465 12.9612 11.216 14.9308 13.6607 16.033L14.7894 13.7757C15.0119 13.3306 15.5279 13.1169 16 13.2743L20.4935 14.7721C20.9018 14.9082 21.1772 15.2903 21.1772 15.7208V19C21.1772 20.1046 20.2818 21 19.1772 21H18.1772C9.89297 21 3.17725 14.2843 3.17725 6V5Z" stroke="#101010" stroke-width="2" stroke-linecap="round" stroke-linejoin="round"/>
</svg>
