<svg width="159" height="38" viewBox="0 0 159 38" fill="none" xmlns="http://www.w3.org/2000/svg">
<path fill-rule="evenodd" clip-rule="evenodd" d="M153.469 4.9474C151.978 3.45163 150.206 2.26603 148.254 1.45907C146.303 0.652116 144.211 0.239793 142.099 0.245917H16.2562C7.39035 0.245917 0.177246 7.44635 0.177246 16.2987V21.7028C0.177246 25.9896 1.84941 30.0214 4.88633 33.0524C6.37684 34.5482 8.14898 35.7339 10.1004 36.5408C12.0517 37.3478 14.1437 37.7601 16.2553 37.7539H142.098C144.21 37.76 146.302 37.3477 148.254 36.5407C150.205 35.7338 151.977 34.5482 153.468 33.0524C154.965 31.5665 156.152 29.7981 156.961 27.8498C157.769 25.9015 158.183 23.8121 158.177 21.7028V16.2987C158.183 14.1891 157.77 12.0995 156.961 10.1509C156.153 8.20232 154.966 6.43362 153.469 4.9474ZM156.324 21.7062C156.324 29.4176 150.028 35.6924 142.291 35.6924H16.0645C12.3165 35.6924 8.79311 34.2373 6.14214 31.5956C3.49117 28.9539 2.03183 25.4424 2.03183 21.7062V16.2945C2.03183 12.5591 3.49201 9.04588 6.14214 6.40505C7.44403 5.10142 8.991 4.06829 10.6939 3.36517C12.3969 2.66205 14.2221 2.30285 16.0645 2.30825H142.29C146.038 2.30825 149.562 3.76337 152.213 6.40505C153.52 7.69869 154.556 9.2392 155.261 10.937C155.967 12.6347 156.328 14.4559 156.323 16.2945V21.7062H156.324Z" fill="#FDFDFD"/>
</svg>
