<svg width="159" height="38" viewBox="0 0 159 38" fill="none" xmlns="http://www.w3.org/2000/svg">
<path fill-rule="evenodd" clip-rule="evenodd" d="M153.469 4.9474C151.978 3.45163 150.206 2.26603 148.254 1.45907C146.303 0.652116 144.211 0.239793 142.099 0.245917H16.2562C7.39035 0.245917 0.177246 7.44635 0.177246 16.2987V21.7028C0.177246 25.9896 1.84941 30.0214 4.88633 33.0524C6.37684 34.5482 8.14898 35.7339 10.1004 36.5408C12.0517 37.3478 14.1437 37.7601 16.2553 37.7539H142.098C144.21 37.76 146.302 37.3477 148.254 36.5407C150.205 35.7338 151.977 34.5482 153.468 33.0524C154.965 31.5665 156.152 29.7981 156.961 27.8498C157.769 25.9015 158.183 23.8121 158.177 21.7028V16.2987C158.183 14.1891 157.77 12.0995 156.961 10.1509C156.153 8.20232 154.966 6.43362 153.469 4.9474ZM156.324 21.7062C156.324 29.4176 150.028 35.6924 142.291 35.6924H16.0645C12.3165 35.6924 8.79311 34.2373 6.14214 31.5956C3.49117 28.9539 2.03183 25.4424 2.03183 21.7062V16.2945C2.03183 12.5591 3.49201 9.04588 6.14214 6.40505C7.44403 5.10142 8.991 4.06829 10.6939 3.36517C12.3969 2.66205 14.2221 2.30285 16.0645 2.30825H142.29C146.038 2.30825 149.562 3.76337 152.213 6.40505C153.52 7.69869 154.556 9.2392 155.261 10.937C155.967 12.6347 156.328 14.4559 156.323 16.2945V21.7062H156.324Z" fill="#FDFDFD"/>
<path fill-rule="evenodd" clip-rule="evenodd" d="M42.2227 12.2576V8.78321H37.3532V12.2576H42.2227ZM42.2252 26.6661V14.504H37.3515V26.6661H42.2252ZM28.3623 19.9394V8.76294H33.2496V26.6813H28.842L20.6822 14.4162C20.0277 13.5024 19.3293 13.9382 19.2862 14.7641V26.6804H14.3989V8.76294H19.7228L27.4469 20.4622C27.7509 20.8963 28.3184 20.8101 28.3623 19.9394ZM46.3795 14.5108V26.6585H51.2397V19.2832C51.2397 14.9449 57.3152 15.0319 57.3152 19.4563V26.6585H62.1755V17.8087C62.1755 15.7261 59.7449 13.7296 57.1421 13.7296C55.1456 13.7296 52.0217 14.857 51.2406 15.7252V14.5108H46.3795ZM93.5302 14.4964V26.6754H98.4192V19.2807C98.4192 14.9314 104.53 15.0184 104.53 19.4546V26.6754H109.419V17.8019C109.419 15.7142 106.974 13.7136 104.355 13.7136C102.348 13.7136 99.2054 14.8444 98.4192 15.7151V14.4973L93.5302 14.4964ZM66.6667 26.6813V14.4981H63.0859V13.1055H66.6667V11.4519H71.5599V13.1055H75.1415V14.4981H71.5599V26.6813H66.6667ZM146.412 9.60493C145.275 9.60493 144.363 10.5018 144.363 11.6048C144.363 12.7255 145.275 13.6215 146.412 13.6215C147.542 13.6215 148.454 12.7255 148.454 11.6048C148.454 10.501 147.542 9.60493 146.412 9.60493ZM146.412 13.3116C146.188 13.3124 145.967 13.2687 145.76 13.183C145.553 13.0973 145.366 12.9714 145.208 12.8126C145.051 12.6537 144.926 12.4651 144.843 12.2578C144.759 12.0504 144.717 11.8285 144.719 11.6048C144.719 10.6758 145.46 9.91488 146.412 9.91488C147.364 9.91488 148.098 10.6758 148.098 11.6048C148.098 12.5506 147.364 13.3116 146.412 13.3116Z" fill="#FDFDFD"/>
<path fill-rule="evenodd" clip-rule="evenodd" d="M147.246 12.5279C147.046 12.2264 146.846 11.9291 146.664 11.6158C146.987 11.5483 147.193 11.3414 147.193 11.023C147.193 10.6877 146.958 10.4918 146.546 10.4918H145.672V12.7357C145.748 12.7298 145.824 12.7188 145.901 12.7188C145.977 12.7188 146.053 12.7298 146.129 12.7357V11.6834H146.236L146.847 12.7357C146.935 12.7298 147.022 12.7188 147.11 12.7188C147.198 12.7188 147.287 12.7298 147.374 12.7357L147.246 12.5279ZM146.13 11.5804V10.7012H146.312C146.5 10.7012 146.687 10.7181 146.687 11.11C146.687 11.452 146.512 11.6082 146.13 11.5804ZM138.001 13.7711C133.505 13.7711 129.859 16.7438 129.859 20.4116C129.859 24.0793 133.504 27.0521 138.001 27.0521C142.498 27.0521 146.143 24.0785 146.143 20.4116C146.143 16.7446 142.498 13.7711 138.001 13.7711ZM140.436 23.3632C140.436 24.7068 139.346 25.7946 138.001 25.7946C136.657 25.7946 135.568 24.7068 135.568 23.3632V17.6331C135.568 16.2903 136.657 15.2017 138.001 15.2017C139.346 15.2017 140.436 16.2903 140.436 17.6331V23.3632ZM90.9274 20.5399C90.9291 20.4969 90.9291 20.4538 90.9291 20.4116C90.9291 16.7505 87.2985 13.7829 82.8217 13.7829C78.344 13.7829 74.7134 16.7505 74.7134 20.4116C74.7134 24.0726 78.3432 27.0411 82.8217 27.0411C86.4633 27.0411 89.5466 25.0759 90.5694 22.3717L85.2531 22.365V23.3632C85.2531 24.0083 84.9968 24.6269 84.5407 25.083C84.0846 25.5392 83.4659 25.7954 82.8208 25.7954C82.1758 25.7954 81.5571 25.5392 81.101 25.083C80.6448 24.6269 80.3886 24.0083 80.3886 23.3632V20.5408H90.9274V20.5399ZM80.392 17.6348C80.392 16.9904 80.648 16.3724 81.1036 15.9167C81.5593 15.461 82.1773 15.2051 82.8217 15.2051C83.4661 15.2051 84.0841 15.461 84.5397 15.9167C84.9954 16.3724 85.2514 16.9904 85.2514 17.6348V18.72H80.392V17.6348ZM122.403 8.75879V15.3723C121.006 14.3715 119.172 13.9805 118.385 14.0675C117.168 14.2026 112.097 13.8935 112.097 20.4192C112.097 26.4229 115.241 27.1196 118.385 27.1196C119.871 27.1196 121.181 26.5977 122.403 25.8148V26.6839H127.294V8.75879H122.403ZM122.403 23.978C119.17 26.8494 117.511 24.152 117.511 22.0635V18.9311C117.511 15.6239 121.091 15.363 122.403 17.3645V23.978Z" fill="#FDFDFD"/>
</svg>
