<svg width="121" height="120" viewBox="0 0 121 120" fill="none" xmlns="http://www.w3.org/2000/svg">
<g clip-path="url(#clip0_963_249)">
<path d="M26.9131 10.1803C26.8525 10.227 26.8058 10.2783 26.7499 10.3249C27.0903 9.9658 27.58 9.57874 27.9017 9.36888C37.2939 3.26442 48.1458 0 60.1868 0C71.4491 0 81.9978 3.11052 91.0029 8.52013C91.6558 8.9072 93.4372 10.129 94.3559 11.2389C85.6679 1.66019 60.1309 22.2167 60.1309 22.2167C51.2983 15.4081 43.1745 10.7679 37.126 9.11705C32.0709 7.73201 28.5733 8.88854 26.9131 10.1803ZM104.196 19.2367C103.93 18.943 103.641 18.6678 103.375 18.3647C101.179 15.9537 98.4784 15.3707 96.0441 15.5293C93.829 16.2242 83.5927 19.9129 70.9781 31.8234C70.9781 31.8234 85.1783 45.6319 93.8756 59.7482C102.564 73.8644 107.759 84.9588 104.564 100.358C114.626 89.3253 120.194 74.9267 120.173 59.9953C120.173 44.2608 114.115 29.9394 104.196 19.2367ZM82.5201 65.778C76.9842 59.5938 71.2642 53.5768 65.3679 47.7351C63.7124 46.0889 61.9636 44.3728 60.1262 42.596C60.1262 42.596 57.3608 45.3614 53.7606 48.9989V48.9942C49.1531 53.6484 43.1792 59.7202 39.8635 63.2644C33.9596 69.5647 17.0452 89.3518 16.0939 100.446C16.0939 100.446 12.3305 91.6462 20.5894 71.3508C25.9851 58.0833 42.2885 38.161 49.0971 31.6695C49.0971 31.6695 42.8761 24.8236 35.0695 20.0948L35.0228 20.0808C35.0228 20.0808 34.9342 20.0109 34.7943 19.9223C31.0402 17.6838 26.9411 15.9583 22.9958 15.7298C18.9666 16.0143 16.4156 18.9616 16.4156 18.9616C5.97049 30.0709 0.164981 44.7515 0.186829 60C0.186829 93.1338 27.0483 120 60.1868 120C68.5463 120.006 76.8145 118.262 84.4592 114.88C92.1039 111.498 98.9557 106.553 104.574 100.362C104.569 100.344 103.31 92.4343 95.2374 81.0881C93.3393 78.43 86.4048 70.1337 82.5201 65.778Z" fill="#FDFDFD"/>
</g>
<defs>
<clipPath id="clip0_963_249">
<rect width="120" height="120" fill="white" transform="translate(0.177246)"/>
</clipPath>
</defs>
</svg>

