<svg width="121" height="120" viewBox="0 0 121 120" fill="none" xmlns="http://www.w3.org/2000/svg">
<g clip-path="url(#clip0_963_674)">
<path d="M99.0835 38.9062H21.271C9.6399 38.9062 0.177246 48.3689 0.177246 60C0.177246 71.6311 9.6399 81.0938 21.271 81.0938H99.0835C110.715 81.0938 120.177 71.6311 120.177 60C120.177 48.3689 110.715 38.9062 99.0835 38.9062ZM99.0835 74.0625H21.271C13.5169 74.0625 7.2085 67.7541 7.2085 60C7.2085 52.2459 13.5169 45.9375 21.271 45.9375H99.0835C106.838 45.9375 113.146 52.2459 113.146 60C113.146 67.7541 106.838 74.0625 99.0835 74.0625Z" fill="#FDFDFD"/>
<path d="M21.0803 52.7886V61.9006L14.2671 52.7886H10.9556V67.5535H14.4782V58.4626L21.2699 67.5535H24.5817V52.7886H21.0803ZM25.518 52.7895H29.2727V67.5544H25.518V52.7895ZM58.2773 64.6004V61.6264H65.3221V58.6733H58.2773V55.7412H66.0815V52.7886H40.3359V61.9006L33.5226 52.7886H30.2113V67.5535H33.7338V58.4626L40.5255 67.5535H43.8372V55.8047H47.2921V67.5535H51.0468V55.8047H54.5226V67.5535H66.3135V64.6004H58.2773ZM77.3756 52.7886V61.9006L70.5625 52.7886H67.251V67.5535H70.7735V58.4626L77.5652 67.5535H80.8769V52.7886H77.3756ZM102.811 52.6831C99.3944 52.6831 96.6182 54.4742 95.4435 57.185C94.3288 54.4812 91.6514 52.7888 88.1634 52.7888H81.8144V67.5537H88.0157C91.5808 67.5537 94.3005 65.8517 95.4332 63.1538C96.6018 65.9051 99.3838 67.7436 102.811 67.7436C107.388 67.7436 110.805 64.4743 110.805 60.1712C110.805 55.8889 107.388 52.6831 102.811 52.6831ZM88.248 64.5584H85.5691V55.7839H88.079C90.4626 55.7839 92.1923 57.5766 92.1923 60.1923C92.1923 62.7865 90.547 64.5584 88.248 64.5584ZM102.853 64.6004C100.596 64.6004 98.677 62.6811 98.677 60.1918C98.677 57.7029 100.575 55.8256 102.853 55.8256C105.131 55.8256 106.945 57.7029 106.945 60.1918C106.945 62.6811 105.131 64.6004 102.853 64.6004Z" fill="#FDFDFD"/>
</g>
<defs>
<clipPath id="clip0_963_674">
<rect width="120" height="120" fill="white" transform="translate(0.177246)"/>
</clipPath>
</defs>
</svg>
