<svg width="121" height="120" viewBox="0 0 121 120" fill="none" xmlns="http://www.w3.org/2000/svg">
<g clip-path="url(#clip0_963_3893)">
<path d="M13.3363 75.9672L9.2885 77.5414C3.21688 80.1274 0.0686338 82.8259 0.181071 85.1871C0.518384 88.6727 4.45369 91.2587 11.6497 93.1702C20.982 95.6438 30.4267 96.206 40.2088 94.7443V84.9622L32.4506 87.8856C24.3551 90.6965 20.1949 88.3354 20.1949 88.3354C18.9581 87.5483 18.3959 85.6369 21.7691 84.4001L26.0417 82.8259L40.2088 77.7662V66.4101L36.6108 67.6469L13.3363 75.9672ZM72.4784 36.5017V65.623C78.55 68.5464 83.947 68.7712 87.9947 65.7354C92.1549 62.8121 94.4037 57.7524 94.4037 50.1066C94.4037 42.1236 92.8295 36.0519 89.344 32.0042C86.1957 27.7316 80.5738 24.1336 72.2535 21.3226C61.9092 17.9495 53.1391 15.0261 46.168 13.5645V100.703L64.945 106.438V34.0281C64.8326 29.643 72.4784 29.9803 72.4784 36.5017Z" fill="#FDFDFD"/>
<path d="M120.152 81.4752C120.04 78.4394 116.442 76.0782 110.033 73.9419C102.837 71.5808 96.6525 70.4564 89.9063 70.6813C83.7222 70.7937 76.3014 72.8176 69.6675 74.9539V86.0852L87.8824 79.6762C87.8824 79.6762 93.3918 77.6524 98.1142 78.8892C101.712 79.7887 101.487 81.8126 97.8893 83.0494L93.7292 84.7359L69.6675 93.3936V104.75L80.9113 100.702L107.896 91.1449L111.045 89.6832C117.566 87.322 120.489 84.7359 120.152 81.4752Z" fill="#FDFDFD"/>
</g>
<defs>
<clipPath id="clip0_963_3893">
<rect width="120" height="120" fill="white" transform="translate(0.177246)"/>
</clipPath>
</defs>
</svg>
