<svg width="24" height="24" viewBox="0 0 24 24" fill="none" xmlns="http://www.w3.org/2000/svg">
<path d="M22.5 6.75C22.5 3.855 20.145 1.5 17.25 1.5C15.1313 1.5 13.3065 2.76375 12.4777 4.575L10.8105 3.8175C10.7131 3.77291 10.6072 3.74984 10.5 3.74984C10.3928 3.74984 10.2869 3.77291 10.1895 3.8175L1.9395 7.5675C1.80847 7.62709 1.69736 7.72313 1.61943 7.84415C1.5415 7.96517 1.50004 8.10606 1.5 8.25V18C1.50004 18.1439 1.5415 18.2848 1.61943 18.4058C1.69736 18.5269 1.80847 18.6229 1.9395 18.6825L10.1895 22.4325C10.2869 22.4771 10.3928 22.5002 10.5 22.5002C10.6072 22.5002 10.7131 22.4771 10.8105 22.4325L19.0605 18.6825C19.1915 18.6229 19.3026 18.5269 19.3806 18.4058C19.4585 18.2848 19.5 18.1439 19.5 18V11.4862C21.27 10.6417 22.5 8.83875 22.5 6.75ZM10.5 5.32425L12.0555 6.03075C12.0205 6.26919 12.0019 6.50976 12 6.75075C12 7.97025 12.4222 9.0915 13.1227 9.984L10.5 11.1765L4.06275 8.25L10.5 5.32425ZM3 9.41475L9.75 12.4823V20.5853L3 17.517V9.41475ZM18 17.517L11.25 20.5845V12.4838L14.3055 11.0948C15.1736 11.6858 16.1998 12.0013 17.25 12C17.505 12 17.754 11.9753 18 11.94V17.517ZM17.25 10.5C15.1823 10.5 13.5 8.81775 13.5 6.75C13.5 4.68225 15.1823 3 17.25 3C19.3177 3 21 4.68225 21 6.75C21 8.81775 19.3177 10.5 17.25 10.5Z" fill="black"/>
<path d="M19.0289 3.8032C18.9375 3.7666 18.8397 3.74838 18.7412 3.74957C18.6427 3.75076 18.5455 3.77133 18.4549 3.81013C18.3644 3.84892 18.2824 3.90516 18.2136 3.97565C18.1448 4.04614 18.0905 4.12949 18.0539 4.22095L16.9762 6.9157L16.2802 6.2197C16.211 6.14807 16.1282 6.09093 16.0367 6.05162C15.9452 6.01231 15.8468 5.99163 15.7472 5.99076C15.6477 5.98989 15.5489 6.00887 15.4567 6.04658C15.3646 6.08429 15.2808 6.13998 15.2104 6.2104C15.14 6.28082 15.0843 6.36456 15.0466 6.45673C15.0089 6.5489 14.9899 6.64766 14.9908 6.74725C14.9916 6.84683 15.0123 6.94525 15.0516 7.03675C15.0909 7.12825 15.1481 7.21101 15.2197 7.2802L16.7197 8.7802C16.8074 8.86804 16.9156 8.93274 17.0344 8.96848C17.1533 9.00423 17.2792 9.0099 17.4008 8.985C17.5225 8.9601 17.636 8.90539 17.7313 8.8258C17.8265 8.7462 17.9006 8.6442 17.9467 8.52895L19.4467 4.77895C19.4833 4.6875 19.5015 4.58974 19.5003 4.49125C19.4991 4.39275 19.4786 4.29546 19.4398 4.20492C19.401 4.11438 19.3447 4.03237 19.2742 3.96357C19.2037 3.89477 19.1204 3.83978 19.0289 3.8032Z" fill="black"/>
</svg>
