<svg width="73" height="50" viewBox="0 0 73 50" fill="none" xmlns="http://www.w3.org/2000/svg">
<path d="M67.3286 1H5.79011C3.41104 1 1.48242 2.92862 1.48242 5.30769V44.6923C1.48242 47.0714 3.41104 49 5.79011 49H67.3286C69.7076 49 71.6363 47.0714 71.6363 44.6923V5.30769C71.6363 2.92862 69.7076 1 67.3286 1Z" fill="#F4B6C7" stroke="#F3F3F3" stroke-width="1.23077"/>
<path fillRule="evenodd" clipRule="evenodd" d="M9.99132 32.1339H7.02148V18.8462H9.99132V32.1339ZM17.4089 18.8462H14.5026C14.5026 21.2915 13.4073 23.5359 11.4979 25.0042L10.3465 25.8894L14.8078 32.1344H18.476L14.3709 26.388C16.3169 24.3989 17.4089 21.7229 17.4089 18.8462ZM22.1464 32.1303H19.3417V18.8488H22.1464V32.1303ZM30.6235 22.9429V23.5306C29.8665 23.0005 28.9528 22.689 27.9673 22.689C25.3591 22.689 23.2449 24.8594 23.2449 27.5368C23.2449 30.2142 25.3591 32.3847 27.9673 32.3847C28.9528 32.3847 29.8665 32.0731 30.6235 31.5432V32.1303H33.3032V22.9429H30.6235ZM30.6146 27.5368C30.6146 28.8423 29.5275 29.9007 28.1865 29.9007C26.8456 29.9007 25.7585 28.8423 25.7585 27.5368C25.7585 26.2313 26.8456 25.1732 28.1865 25.1732C29.5275 25.1732 30.6146 26.2313 30.6146 27.5368ZM58.8927 23.5306V22.9429H61.5724V32.1303H58.8927V31.5432C58.1358 32.0731 57.2221 32.3847 56.2365 32.3847C53.6283 32.3847 51.514 30.2142 51.514 27.5368C51.514 24.8594 53.6283 22.689 56.2365 22.689C57.2221 22.689 58.1358 23.0005 58.8927 23.5306ZM56.4558 29.9007C57.7969 29.9007 58.8838 28.8423 58.8838 27.5368C58.8838 26.2313 57.7969 25.1732 56.4558 25.1732C55.1148 25.1732 54.0278 26.2313 54.0278 27.5368C54.0278 28.8423 55.1148 29.9007 56.4558 29.9007ZM62.7353 30.5978C62.7353 29.6445 63.4882 28.8717 64.4168 28.8717C65.3454 28.8717 66.0984 29.6445 66.0984 30.5978C66.0984 31.5511 65.3454 32.324 64.4168 32.324C63.4882 32.324 62.7353 31.5511 62.7353 30.5978ZM46.7524 22.6958C45.682 22.6958 44.6691 23.037 43.9918 23.9781V22.9434H41.3238V32.1303H44.0246V27.3023C44.0246 25.9051 44.9372 25.2211 46.036 25.2211C47.2137 25.2211 47.8908 25.9432 47.8908 27.2832V32.1303H50.5672V26.2878C50.5672 24.1498 48.9112 22.6958 46.7524 22.6958ZM37.4484 22.9431V24.1396C37.9855 23.4218 38.9864 22.9435 40.0747 22.9435V25.617L40.066 25.6167L40.0596 25.6164L40.0527 25.616L40.0428 25.6158C38.9826 25.6158 37.4546 26.3936 37.4546 27.8409V32.1303H34.7049V22.9431H37.4484Z" fill="#17120F"/>
</svg>
