<svg width="91" height="25" viewBox="0 0 91 25" fill="none" xmlns="http://www.w3.org/2000/svg">
<path d="M16.2116 1.66503C15.0832 0.889295 13.6107 0.500488 11.7942 0.500488H4.76154C4.20466 0.500488 3.897 0.778993 3.83856 1.33533L0.981624 19.2683C0.951933 19.4444 0.995999 19.6055 1.11342 19.7519C1.23017 19.8988 1.37701 19.9717 1.55288 19.9717H4.89334C5.47923 19.9717 5.80127 19.6939 5.86038 19.1366L6.65143 14.302C6.68031 14.0677 6.78336 13.8772 6.95922 13.7305C7.13495 13.5841 7.35475 13.4882 7.61847 13.4444C7.8822 13.4008 8.13088 13.3789 8.36573 13.3789C8.5999 13.3789 8.87813 13.3937 9.20097 13.4229C9.52301 13.4522 9.72829 13.4664 9.81629 13.4664C12.3361 13.4664 14.314 12.7564 15.7501 11.3348C17.1855 9.9138 17.904 7.9433 17.904 5.42291C17.904 3.6941 17.3394 2.44143 16.2116 1.66449V1.66503ZM12.5855 7.04974C12.4385 8.0755 12.058 8.74913 11.4427 9.07156C10.8273 9.39441 9.94822 9.55482 8.80558 9.55482L7.35502 9.59889L8.1024 4.89572C8.16071 4.57369 8.35108 4.41247 8.67365 4.41247H9.50904C10.6806 4.41247 11.5309 4.58135 12.0583 4.91776C12.5855 5.25497 12.7614 5.96595 12.5855 7.04974Z" fill="#003087"/>
<path d="M90.4281 0.5H87.1758C86.8527 0.5 86.6624 0.661221 86.6044 0.983525L83.7472 19.2685L83.7031 19.3563C83.7031 19.5036 83.7618 19.6421 83.8793 19.774C83.9959 19.9055 84.143 19.9716 84.3187 19.9716H87.22C87.7759 19.9716 88.0837 19.6938 88.1431 19.1367L91 1.15939V1.11572C90.9998 0.705555 90.8087 0.500404 90.4281 0.500404V0.5Z" fill="#009CDE"/>
<path d="M51.1338 7.57723C51.1338 7.43106 51.075 7.29161 50.9584 7.15994C50.8408 7.02815 50.7089 6.96191 50.5627 6.96191H47.1783C46.8553 6.96191 46.5917 7.10916 46.387 7.40137L41.7279 14.2586L39.7941 7.66537C39.6468 7.19676 39.3248 6.96191 38.827 6.96191H35.5301C35.3833 6.96191 35.2513 7.02801 35.1349 7.15994C35.0173 7.29161 34.959 7.4312 34.959 7.57723C34.959 7.63635 35.2447 8.50035 35.816 10.1706C36.3873 11.8411 37.0027 13.6432 37.6621 15.5773C38.3215 17.5112 38.6654 18.5372 38.695 18.6537C36.292 21.9358 35.0909 23.6942 35.0909 23.9282C35.0909 24.3095 35.2813 24.4997 35.6623 24.4997H39.0467C39.369 24.4997 39.6326 24.3536 39.838 24.0603L51.0464 7.88462C51.1045 7.82645 51.1338 7.72435 51.1338 7.5771V7.57723Z" fill="#003087"/>
<path d="M82.6486 6.96209H79.308C78.8974 6.96209 78.6491 7.44561 78.5611 8.41266C77.7984 7.24113 76.4074 6.6543 74.3851 6.6543C72.2753 6.6543 70.4803 7.44561 69.0008 9.02798C67.5209 10.6105 66.7812 12.4715 66.7812 14.6103C66.7812 16.3395 67.2865 17.7166 68.2974 18.7418C69.3082 19.7681 70.6634 20.2803 72.3636 20.2803C73.2131 20.2803 74.0775 20.1041 74.9565 19.7528C75.8357 19.4012 76.5237 18.9326 77.0227 18.3463C77.0227 18.3757 76.9929 18.5073 76.9348 18.7416C76.8757 18.9764 76.8468 19.1527 76.8468 19.269C76.8468 19.7384 77.0368 19.9722 77.4184 19.9722H80.4514C81.0074 19.9722 81.3302 19.6944 81.4178 19.1371L83.2201 7.66514C83.249 7.48928 83.2052 7.32833 83.0883 7.18162C82.9706 7.03558 82.8244 6.96209 82.6486 6.96209ZM76.9127 15.6212C76.1654 16.3538 75.2643 16.72 74.2096 16.72C73.3594 16.72 72.6714 16.486 72.1437 16.0168C71.6159 15.5489 71.3522 14.9041 71.3522 14.0827C71.3522 12.9993 71.7186 12.0831 72.4513 11.3358C73.183 10.5886 74.0923 10.215 75.1765 10.215C75.9963 10.215 76.6777 10.4568 77.2202 10.94C77.7619 11.4236 78.0337 12.0905 78.0337 12.9402C78.0335 13.995 77.6598 14.889 76.9127 15.6212Z" fill="#009CDE"/>
<path d="M32.7172 6.96209H29.3767C28.9659 6.96209 28.7173 7.44561 28.6293 8.41266C27.8382 7.24113 26.4462 6.6543 24.4536 6.6543C22.3438 6.6543 20.5488 7.44561 19.0692 9.02798C17.5892 10.6105 16.8496 12.4715 16.8496 14.6103C16.8496 16.3395 17.3552 17.7166 18.3661 18.7418C19.3771 19.7681 20.732 20.2803 22.4318 20.2803C23.2519 20.2803 24.1022 20.1041 24.9811 19.7528C25.8601 19.4012 26.5635 18.9326 27.0909 18.3463C26.9734 18.6978 26.9151 19.0056 26.9151 19.269C26.9151 19.7384 27.1054 19.9722 27.4864 19.9722H30.5192C31.0756 19.9722 31.3983 19.6944 31.4863 19.1371L33.2883 7.66514C33.3172 7.48928 33.2733 7.32833 33.1565 7.18162C33.0392 7.03558 32.8929 6.96209 32.7172 6.96209ZM26.9812 15.6429C26.2338 16.3618 25.3176 16.72 24.2341 16.72C23.3838 16.72 22.7025 16.486 22.1901 16.0168C21.677 15.5489 21.4208 14.9041 21.4208 14.0827C21.4208 12.9993 21.7869 12.0831 22.5198 11.3358C23.2519 10.5886 24.1604 10.215 25.245 10.215C26.065 10.215 26.7463 10.4568 27.2889 10.9402C27.8306 11.4237 28.102 12.0906 28.102 12.9404C28.102 14.0244 27.7284 14.9258 26.9812 15.6429Z" fill="#003087"/>
<path d="M66.1434 1.66503C65.0151 0.889295 63.5429 0.500488 61.7261 0.500488H54.7373C54.151 0.500488 53.8284 0.778993 53.7703 1.33533L50.9133 19.2683C50.8836 19.4445 50.9275 19.6056 51.0451 19.7521C51.1613 19.8988 51.3087 19.9717 51.4845 19.9717H55.0886C55.4402 19.9717 55.6745 19.7815 55.7919 19.4005L56.5832 14.302C56.6122 14.0677 56.7149 13.8772 56.8909 13.7305C57.0667 13.5841 57.2863 13.4883 57.5503 13.4444C57.8139 13.4008 58.0624 13.3789 58.2975 13.3789C58.5317 13.3789 58.8099 13.3937 59.1324 13.4229C59.4547 13.4522 59.6605 13.4664 59.7477 13.4664C62.2681 13.4664 64.2456 12.7564 65.6816 11.3348C67.1175 9.9138 67.8354 7.9433 67.8354 5.42291C67.8356 3.69424 67.2712 2.44156 66.1434 1.66462V1.66503ZM61.6381 8.8957C60.9934 9.33516 60.0263 9.55482 58.7372 9.55482L57.3306 9.59889L58.0779 4.89572C58.1359 4.57369 58.3263 4.41247 58.6491 4.41247H59.44C60.0846 4.41247 60.5973 4.44176 60.9789 4.5002C61.3592 4.55931 61.7261 4.74189 62.0777 5.04955C62.4294 5.35735 62.6051 5.80433 62.6051 6.39036C62.6051 7.621 62.2824 8.45598 61.6381 8.8957Z" fill="#009CDE"/>
</svg>
