<svg width="78" height="50" viewBox="0 0 78 50" fill="none" xmlns="http://www.w3.org/2000/svg">
<path d="M70.5167 1H7.63672C4.32301 1 1.63672 3.68629 1.63672 7V43C1.63672 46.3137 4.32302 49 7.63673 49H70.5167C73.8304 49 76.5167 46.3137 76.5167 43V7C76.5167 3.68629 73.8304 1 70.5167 1Z" fill="white" stroke="black" stroke-width="1.44"/>
<path d="M17.8011 17.2579C16.9948 16.7036 15.9426 16.4258 14.6446 16.4258H9.61938C9.22146 16.4258 9.00162 16.6248 8.95986 17.0224L6.91852 29.8365C6.8973 29.9624 6.92879 30.0775 7.01269 30.1821C7.09612 30.2869 7.20105 30.3391 7.32671 30.3391H9.71365C10.1323 30.3391 10.3624 30.1405 10.4047 29.7424L10.9699 26.2878C10.9905 26.1203 11.0642 25.9842 11.1898 25.8794C11.3154 25.7747 11.4725 25.7063 11.6609 25.675C11.8494 25.6439 12.0271 25.6281 12.1949 25.6281C12.3622 25.6281 12.561 25.6388 12.7917 25.6596C13.0218 25.6805 13.1685 25.6907 13.2314 25.6907C15.032 25.6907 16.4453 25.1834 17.4714 24.1675C18.4971 23.1522 19.0105 21.7443 19.0105 19.9431C19.0105 18.7078 18.607 17.8128 17.8011 17.2576V17.2579ZM15.2101 21.1056C15.1051 21.8385 14.8332 22.3199 14.3936 22.5503C13.9538 22.781 13.3257 22.8958 12.5092 22.8958L11.4727 22.9271L12.0067 19.5664C12.0484 19.3363 12.1844 19.2211 12.4149 19.2211H13.0118C13.8489 19.2211 14.4565 19.3418 14.8334 19.5822C15.2101 19.8231 15.3358 20.3311 15.2101 21.1056Z" fill="#003087"/>
<path d="M70.8326 16.4253H68.5088C68.2778 16.4253 68.1418 16.5405 68.1004 16.771L66.0588 29.8366L66.0273 29.8994C66.0273 30.0046 66.0692 30.1036 66.1532 30.1978C66.2364 30.2919 66.3416 30.3391 66.4671 30.3391H68.5403C68.9375 30.3391 69.1574 30.1405 69.2 29.7424L71.2413 16.8967V16.8655C71.2412 16.5722 71.1047 16.4257 70.8326 16.4257V16.4253Z" fill="#009CDE"/>
<path d="M42.755 21.4826C42.755 21.3782 42.7129 21.2786 42.6297 21.1846C42.5457 21.0904 42.4514 21.043 42.347 21.043H39.9287C39.6979 21.043 39.5094 21.1482 39.3631 21.357L36.034 26.2567L34.6521 21.5456C34.5469 21.2109 34.3169 21.043 33.9612 21.043H31.6053C31.5003 21.043 31.4062 21.0902 31.3229 21.1846C31.2389 21.2786 31.1973 21.3784 31.1973 21.4826C31.1973 21.5248 31.4015 22.1423 31.8096 23.3357C32.2178 24.5296 32.6575 25.8173 33.1287 27.1994C33.5999 28.5811 33.8457 29.3143 33.8667 29.3974C32.1497 31.7428 31.2915 32.9991 31.2915 33.1663C31.2915 33.4388 31.4274 33.5747 31.6998 33.5747H34.1182C34.3484 33.5747 34.5367 33.4703 34.6836 33.2608L42.6926 21.7024C42.7342 21.6609 42.755 21.588 42.755 21.4826V21.4826Z" fill="#003087"/>
<path d="M65.2736 21.0431H62.8866C62.5931 21.0431 62.4158 21.3887 62.3529 22.0798C61.8078 21.2425 60.814 20.8232 59.3689 20.8232C57.8614 20.8232 56.5787 21.3887 55.5216 22.5194C54.464 23.6501 53.9355 24.98 53.9355 26.5084C53.9355 27.744 54.2967 28.728 55.0189 29.4606C55.7413 30.1939 56.7096 30.5598 57.9244 30.5598C58.5315 30.5598 59.1492 30.434 59.7773 30.183C60.4055 29.9317 60.8971 29.5969 61.2537 29.1779C61.2537 29.199 61.2323 29.2928 61.1909 29.4603C61.1486 29.6281 61.128 29.7541 61.128 29.8372C61.128 30.1726 61.2637 30.3396 61.5364 30.3396H63.7036C64.101 30.3396 64.3316 30.1411 64.3942 29.743L65.6821 21.5455C65.7028 21.4198 65.6715 21.3049 65.5878 21.2C65.5036 21.0956 65.3992 21.0431 65.2736 21.0431ZM61.175 27.2307C60.6411 27.7542 59.9971 28.0158 59.2434 28.0158C58.6359 28.0158 58.1443 27.8485 57.7672 27.5133C57.3901 27.179 57.2017 26.7183 57.2017 26.1314C57.2017 25.3572 57.4635 24.7023 57.9871 24.1685C58.5099 23.6345 59.1596 23.3676 59.9343 23.3676C60.5201 23.3676 61.007 23.5403 61.3947 23.8856C61.7817 24.2312 61.976 24.7076 61.976 25.315C61.9758 26.0687 61.7089 26.7075 61.175 27.2307Z" fill="#009CDE"/>
<path d="M29.5962 21.0431H27.2091C26.9156 21.0431 26.738 21.3887 26.6751 22.0798C26.1097 21.2425 25.1151 20.8232 23.6913 20.8232C22.1837 20.8232 20.9011 21.3887 19.8438 22.5194C18.7863 23.6501 18.2578 24.98 18.2578 26.5084C18.2578 27.744 18.6191 28.728 19.3415 29.4606C20.0639 30.1939 21.032 30.5598 22.2466 30.5598C22.8326 30.5598 23.4402 30.434 24.0682 30.183C24.6963 29.9317 25.1989 29.5969 25.5758 29.1779C25.4918 29.429 25.4501 29.6489 25.4501 29.8372C25.4501 30.1726 25.5862 30.3396 25.8584 30.3396H28.0255C28.4231 30.3396 28.6537 30.1411 28.7165 29.743L30.0042 21.5455C30.0248 21.4198 29.9935 21.3049 29.91 21.2C29.8262 21.0956 29.7217 21.0431 29.5962 21.0431ZM25.4975 27.2462C24.9634 27.7598 24.3088 28.0158 23.5345 28.0158C22.927 28.0158 22.4401 27.8485 22.074 27.5133C21.7074 27.179 21.5243 26.7183 21.5243 26.1314C21.5243 25.3572 21.7859 24.7023 22.3096 24.1685C22.8327 23.6345 23.4818 23.3675 24.2569 23.3675C24.8428 23.3675 25.3297 23.5403 25.7174 23.8856C26.1045 24.2312 26.2984 24.7076 26.2984 25.315C26.2983 26.0897 26.0314 26.7338 25.4975 27.2462Z" fill="#003087"/>
<path d="M53.479 17.2579C52.6728 16.7036 51.6209 16.4258 50.3226 16.4258H45.3287C44.9098 16.4258 44.6794 16.6248 44.6378 17.0224L42.5963 29.8365C42.575 29.9624 42.6065 30.0775 42.6905 30.1821C42.7736 30.2869 42.8788 30.3391 43.0044 30.3391H45.5797C45.831 30.3391 45.9984 30.2031 46.0824 29.9309L46.6477 26.2878C46.6686 26.1203 46.7418 25.9842 46.8677 25.8794C46.9933 25.7747 47.1502 25.7063 47.3388 25.675C47.5271 25.6439 47.7048 25.6281 47.8727 25.6281C48.0401 25.6281 48.2388 25.6388 48.4693 25.6596C48.6995 25.6805 48.8466 25.6907 48.909 25.6907C50.71 25.6907 52.123 25.1834 53.1491 24.1675C54.1752 23.1522 54.6881 21.7443 54.6881 19.9431C54.6882 18.7078 54.2849 17.8127 53.479 17.2576V17.2579ZM50.2598 22.4245C49.7991 22.7385 49.108 22.8955 48.187 22.8955L47.1818 22.927L47.7157 19.5662C47.7572 19.3362 47.8933 19.2208 48.1239 19.2208H48.6891C49.1498 19.2208 49.5161 19.2418 49.7888 19.2836C50.0604 19.3257 50.3226 19.4563 50.5739 19.6761C50.8253 19.896 50.9507 20.2155 50.9507 20.634C50.9507 21.5138 50.7202 22.1102 50.2598 22.4245Z" fill="#009CDE"/>
</svg>
