<svg width="76" height="49" viewBox="0 0 76 49" fill="none" xmlns="http://www.w3.org/2000/svg">
<path d="M4.57047 0.385742H71.7705C73.8913 0.385742 75.6105 2.10501 75.6105 4.22574V44.5457C75.6105 46.6666 73.8913 48.3857 71.7705 48.3857H4.57047C2.44973 48.3857 0.730469 46.6666 0.730469 44.5457V4.22574C0.730469 2.10501 2.44973 0.385742 4.57047 0.385742Z" fill="#0E4595"/>
<path d="M28.878 33.8637L32.0807 15.0707H37.2032L33.9983 33.8637H28.878ZM52.5046 15.4758C51.4899 15.0951 49.8994 14.6865 47.9137 14.6865C42.8521 14.6865 39.2866 17.2353 39.2564 20.8884C39.2277 23.5889 41.8017 25.0953 43.7446 25.9943C45.7386 26.9154 46.4088 27.5028 46.3994 28.3254C46.3868 29.5851 44.8071 30.1606 43.3349 30.1606C41.2846 30.1606 40.1954 29.8757 38.5131 29.1741L37.853 28.8755L37.134 33.0825C38.3305 33.6071 40.543 34.0615 42.8401 34.0851C48.2247 34.0851 51.7201 31.5654 51.76 27.6644C51.7791 25.5266 50.4145 23.8996 47.4591 22.5583C45.6687 21.6891 44.5722 21.1088 44.5838 20.2286C44.5838 19.4475 45.512 18.6121 47.5173 18.6121C49.1924 18.5861 50.4059 18.9514 51.3513 19.3321L51.8103 19.549L52.5046 15.4758ZM65.6863 15.0704H61.7281C60.5019 15.0704 59.5842 15.4052 59.0457 16.6289L51.4383 33.8513H56.8173C56.8173 33.8513 57.6967 31.5355 57.8956 31.0272C58.4836 31.0272 63.7088 31.0352 64.456 31.0352C64.6092 31.6931 65.0791 33.8513 65.0791 33.8513H69.8324L65.6863 15.0699V15.0704ZM59.4062 27.2058C59.8298 26.123 61.4472 21.9524 61.4472 21.9524C61.4168 22.0025 61.8676 20.8643 62.1263 20.1587L62.4724 21.7791C62.4724 21.7791 63.4534 26.2651 63.6583 27.2058H59.4062ZM24.5294 15.0704L19.5144 27.8864L18.98 25.2819C18.0464 22.2797 15.1376 19.0271 11.8857 17.3986L16.4713 33.8338L21.8911 33.8277L29.9554 15.0702H24.5294" fill="white"/>
<path d="M14.8351 15.0697H6.57514L6.50977 15.4607C12.9358 17.0163 17.1878 20.7756 18.9533 25.2921L17.1571 16.6559C16.847 15.466 15.9478 15.1109 14.8353 15.0693" fill="#F2AE14"/>
</svg>
