<svg width="99" height="25" viewBox="0 0 99 25" fill="none" xmlns="http://www.w3.org/2000/svg">
<path d="M19.2441 20.3175L21.8856 4.81689H26.1105L23.4672 20.3175H19.2441Z" fill="#0E4595"/>
<path d="M38.7323 5.15102C37.8953 4.83699 36.5837 4.5 34.9457 4.5C30.7709 4.5 27.8303 6.60232 27.8052 9.61538C27.7817 11.8426 29.9046 13.0851 31.5072 13.8266C33.1518 14.5865 33.7046 15.071 33.6967 15.7493C33.6862 16.7884 32.3834 17.2629 31.169 17.2629C29.4781 17.2629 28.5797 17.028 27.1921 16.4494L26.6476 16.203L26.0547 19.673C27.0415 20.1058 28.8662 20.4805 30.761 20.5C35.2023 20.5 38.0854 18.4217 38.1182 15.2041C38.1339 13.4407 37.0084 12.099 34.5708 10.9926C33.0941 10.2756 32.1897 9.7971 32.1993 9.07101C32.1993 8.42672 32.9648 7.73777 34.6189 7.73777C36.0004 7.71631 37.0013 8.01759 37.7811 8.33162L38.1596 8.51049L38.7323 5.15102Z" fill="#0E4595"/>
<path d="M49.6051 4.81641H46.3405C45.3291 4.81641 44.5722 5.09243 44.1281 6.10182L37.8535 20.307H42.2901C42.2901 20.307 43.0154 18.397 43.1794 17.9776C43.6643 17.9776 47.9742 17.9843 48.5903 17.9843C48.7167 18.527 49.1043 20.307 49.1043 20.307H53.0247L49.6051 4.81641ZM44.4253 14.8255C44.7748 13.9324 46.1087 10.4924 46.1087 10.4924C46.0839 10.5336 46.4556 9.59495 46.6688 9.01297L46.9544 10.3494C46.9544 10.3494 47.7634 14.0494 47.9325 14.8252H44.4253V14.8255Z" fill="#0E4595"/>
<path d="M0.850848 4.81689L0.796875 5.13934C2.46703 5.54363 3.95871 6.12879 5.2647 6.85672L9.01355 20.2927L13.4837 20.2877L20.1352 4.81689H15.6595L11.5232 15.3872L11.0826 13.2389C11.062 13.1726 11.0395 13.1061 11.0166 13.0394L9.57864 6.12554C9.32297 5.14402 8.58124 4.8511 7.66362 4.81689H0.850848Z" fill="#0E4595"/>
<path d="M73.6445 24.445V22.8505C73.6445 22.239 73.2723 21.8405 72.6614 21.8405C72.3406 21.8405 71.9973 21.947 71.758 22.2897C71.5719 21.9971 71.3088 21.8405 70.9078 21.8405C70.7587 21.8341 70.6103 21.8647 70.4759 21.9296C70.3416 21.9946 70.2254 22.0918 70.1378 22.2127V21.8918H69.6328V24.4431H70.1378V22.9833C70.1378 22.5341 70.4034 22.3192 70.7756 22.3192C71.1478 22.3192 71.3602 22.5585 71.3602 22.9833V24.445H71.8651V22.9833C71.8651 22.5341 72.1308 22.3192 72.503 22.3192C72.8751 22.3192 73.0875 22.5585 73.0875 22.9833V24.445H73.6445ZM81.936 21.9201H81.0056V21.1501H80.5019V21.9201H79.9706V22.3692H80.5019V23.5679C80.5019 24.1524 80.7143 24.4983 81.3521 24.4983C81.5937 24.4932 81.8305 24.4293 82.0419 24.3122L81.8821 23.863C81.7387 23.9526 81.5725 23.9988 81.4034 23.9958C81.1378 23.9958 81.005 23.8361 81.005 23.5704V22.3487H81.9354V21.9233L81.936 21.9201ZM86.6663 21.8405C86.5288 21.8374 86.3928 21.8701 86.2717 21.9354C86.1505 22.0006 86.0484 22.0961 85.9752 22.2127V21.8918H85.4703V24.4431H85.9752V23.0102C85.9752 22.5848 86.1876 22.3192 86.5335 22.3192C86.6502 22.3239 86.766 22.3418 86.8787 22.3724L87.0385 21.8938C86.9166 21.863 86.7919 21.8452 86.6663 21.8405ZM79.5176 22.1062C79.2519 21.9201 78.8798 21.8405 78.4813 21.8405C77.8435 21.8405 77.445 22.1331 77.445 22.6381C77.445 23.0635 77.7376 23.3022 78.2952 23.3824L78.5609 23.4087C78.8535 23.462 79.0395 23.5685 79.0395 23.7013C79.0395 23.8874 78.8272 24.0221 78.428 24.0221C78.1233 24.0284 77.8248 23.9352 77.5778 23.7565L77.3122 24.155C77.6844 24.4206 78.1361 24.4758 78.403 24.4758C79.1473 24.4758 79.5458 24.1306 79.5458 23.6519C79.5458 23.2027 79.225 22.9878 78.6687 22.9076L78.403 22.8813C78.1637 22.855 77.9539 22.7748 77.9539 22.6156C77.9539 22.4295 78.1662 22.2948 78.4588 22.2948C78.7797 22.2948 79.0967 22.4276 79.2564 22.5072L79.5176 22.1062ZM87.2246 23.1694C87.2246 23.9394 87.7295 24.4983 88.5534 24.4983C88.9256 24.4983 89.1912 24.4187 89.4569 24.2057L89.1912 23.8072C89.0032 23.9595 88.7691 24.0438 88.5271 24.0465C88.078 24.0465 87.7295 23.7013 87.7295 23.1963C87.7295 22.6913 88.0735 22.3487 88.5271 22.3487C88.7691 22.3514 89.0032 22.4357 89.1912 22.588L89.4569 22.1896C89.1912 21.9772 88.9256 21.897 88.5534 21.897C87.7559 21.8437 87.2246 22.402 87.2246 23.1726V23.1694ZM83.6633 21.8405C82.919 21.8405 82.414 22.3718 82.414 23.1694C82.414 23.967 82.9453 24.4983 83.716 24.4983C84.0909 24.5062 84.457 24.3842 84.7522 24.153L84.4866 23.7809C84.2731 23.9464 84.0123 24.0394 83.7423 24.0465C83.3971 24.0465 83.0249 23.8341 82.9723 23.3824H84.8594V23.17C84.8594 22.3724 84.3807 21.8411 83.6633 21.8411V21.8405ZM83.637 22.3192C84.0092 22.3192 84.2748 22.5585 84.3012 22.957H82.9197C82.9992 22.5848 83.2405 22.3192 83.637 22.3192ZM76.754 23.1694V21.8938H76.249V22.2146C76.0629 21.9753 75.7998 21.8424 75.4251 21.8424C74.7077 21.8424 74.1758 22.4007 74.1758 23.1713C74.1758 23.9419 74.7071 24.5002 75.4251 24.5002C75.7972 24.5002 76.0629 24.3674 76.249 24.128V24.4489H76.754V23.1694ZM74.7077 23.1694C74.7077 22.6907 75.0003 22.3192 75.5053 22.3192C75.984 22.3192 76.2753 22.6913 76.2753 23.1694C76.2753 23.6744 75.9544 24.0196 75.5053 24.0196C75.0003 24.0459 74.7077 23.6474 74.7077 23.1694ZM94.3476 21.8405C94.2101 21.8374 94.0741 21.8701 93.953 21.9354C93.8318 22.0006 93.7297 22.0961 93.6566 22.2127V21.8918H93.1516V24.4431H93.6559V23.0102C93.6559 22.5848 93.8683 22.3192 94.2142 22.3192C94.3309 22.3239 94.4467 22.3418 94.5594 22.3724L94.7192 21.8938C94.5973 21.863 94.4726 21.8452 94.347 21.8405H94.3476ZM92.3809 23.1694V21.8938H91.876V22.2146C91.6899 21.9753 91.4268 21.8424 91.0521 21.8424C90.3347 21.8424 89.8028 22.4007 89.8028 23.1713C89.8028 23.9419 90.334 24.5002 91.0521 24.5002C91.4242 24.5002 91.6899 24.3674 91.876 24.128V24.4489H92.3809V23.1694ZM90.3347 23.1694C90.3347 22.6907 90.6273 22.3192 91.1323 22.3192C91.6109 22.3192 91.9023 22.6913 91.9023 23.1694C91.9023 23.6744 91.5814 24.0196 91.1323 24.0196C90.6273 24.0459 90.3347 23.6474 90.3347 23.1694ZM97.5104 23.1694V20.8838H97.0054V22.2127C96.8193 21.9733 96.5562 21.8405 96.1815 21.8405C95.4641 21.8405 94.9322 22.3987 94.9322 23.1694C94.9322 23.94 95.4635 24.4983 96.1815 24.4983C96.5537 24.4983 96.8193 24.3654 97.0054 24.1261V24.4469H97.5104V23.1694ZM95.4641 23.1694C95.4641 22.6907 95.7567 22.3192 96.2617 22.3192C96.7404 22.3192 97.0317 22.6913 97.0317 23.1694C97.0317 23.6744 96.7109 24.0196 96.2617 24.0196C95.7561 24.0465 95.4635 23.6481 95.4635 23.1694H95.4641Z" fill="black"/>
<path d="M88.1575 2.54639H78.9355V17.5882H88.1575V2.54639Z" fill="#FF5F00"/>
<path d="M79.865 10.0672C79.8653 8.62013 80.193 7.19192 80.8235 5.88947C81.454 4.58703 82.371 3.44409 83.5058 2.54626C82.0945 1.43665 80.3995 0.74651 78.6145 0.554743C76.8295 0.362976 75.0266 0.677316 73.4118 1.46183C71.797 2.24634 70.4355 3.46937 69.483 4.99111C68.5305 6.51285 68.0254 8.27189 68.0254 10.0672C68.0254 11.8624 68.5305 13.6215 69.483 15.1432C70.4355 16.6649 71.797 17.888 73.4118 18.6725C75.0266 19.457 76.8295 19.7713 78.6145 19.5796C80.3995 19.3878 82.0945 18.6977 83.5058 17.5881C82.371 16.6902 81.454 15.5473 80.8235 14.2448C80.193 12.9424 79.8653 11.5142 79.865 10.0672Z" fill="#EB001B"/>
<path d="M99.0011 10.0669C99.0024 11.8609 98.4988 13.619 97.5478 15.1401C96.5969 16.6613 95.237 17.8841 93.6237 18.6688C92.0104 19.4534 90.2089 19.7681 88.4252 19.5769C86.6414 19.3858 84.9475 18.6964 83.5371 17.5878C84.6722 16.6902 85.5894 15.5473 86.2199 14.2448C86.8504 12.9423 87.178 11.514 87.178 10.0669C87.178 8.6198 86.8504 7.19148 86.2199 5.88898C85.5894 4.58649 84.6722 3.4436 83.5371 2.546C84.9475 1.43735 86.6414 0.748021 88.4252 0.556862C90.2089 0.365702 92.0104 0.680428 93.6237 1.46504C95.237 2.24966 96.5969 3.47248 97.5478 4.99366C98.4988 6.51483 99.0024 8.27294 99.0011 10.0669Z" fill="#F79E1B"/>
</svg>
